<svg width="26" height="26" viewBox="0 0 26 26" fill="none" xmlns="http://www.w3.org/2000/svg">
<rect width="26" height="26" rx="4" fill="#936CDD"/>
<path fill-rule="evenodd" clip-rule="evenodd" d="M13.8182 0.8125V3.69688C16.0536 3.89952 18.132 4.92438 19.6457 6.57037C21.1594 8.21636 21.9991 10.3647 22 12.5938V15.3156C22 15.5311 21.9138 15.7378 21.7604 15.8901C21.6069 16.0425 21.3988 16.1281 21.1818 16.1281C20.9648 16.1281 20.7567 16.0425 20.6033 15.8901C20.4498 15.7378 20.3636 15.5311 20.3636 15.3156V15.0312H5.63636V15.3156C5.63636 15.5311 5.55016 15.7378 5.39672 15.8901C5.24328 16.0425 5.03518 16.1281 4.81818 16.1281C4.60119 16.1281 4.39308 16.0425 4.23964 15.8901C4.0862 15.7378 4 15.5311 4 15.3156V12.5938C4.00091 10.3647 4.84059 8.21636 6.35429 6.57037C7.86799 4.92438 9.94643 3.89952 12.1818 3.69688V0.8125C12.1818 0.597012 12.268 0.390349 12.4215 0.237976C12.5749 0.0856024 12.783 0 13 0C13.217 0 13.4251 0.0856024 13.5785 0.237976C13.732 0.390349 13.8182 0.597012 13.8182 0.8125ZM18.7273 13.4062H20.3636V12.5938C20.3636 10.6544 19.5878 8.79439 18.2069 7.42303C16.8259 6.05167 14.953 5.28125 13 5.28125C11.047 5.28125 9.17407 6.05167 7.79312 7.42303C6.41217 8.79439 5.63636 10.6544 5.63636 12.5938V13.4062H7.27273V12.5938C7.27273 11.0853 7.87613 9.63869 8.95021 8.57208C10.0243 7.50547 11.481 6.90625 13 6.90625C14.519 6.90625 15.9757 7.50547 17.0498 8.57208C18.1239 9.63869 18.7273 11.0853 18.7273 12.5938V13.4062Z" fill="white"/>
<path d="M7.27273 20.3339V16.6562H18.7273V20.3339C18.7103 20.6363 18.6692 20.937 18.6045 21.2329V21.3555C18.3539 22.6622 17.6552 23.8409 16.6285 24.6886C15.6019 25.5363 14.3115 26 12.9795 26C11.6475 26 10.3572 25.5363 9.33054 24.6886C8.30389 23.8409 7.60514 22.6622 7.35455 21.3555V21.192C7.30586 20.9084 7.27851 20.6216 7.27273 20.3339Z" fill="white"/>
</svg>
